{"title":"In The Woods (Angelos Frantzis, 2010)","uid":7499828,"size":1566157112,"categoryP":"video","categoryS":"movies","magnet":"?xt=urn:btih:fd21d181ed3d47eb69c8c92d1cd53d63cea77b01&amp;dn=In+The+Woods+%28Angelos+Frantzis%2C+2010%29&amp;tr=udp%3A%2F%2Ftracker.openbittorrent.com%3A80&amp;tr=udp%3A%2F%2Fopen.demonii.com%3A1337&amp;tr=udp%3A%2F%2Ftracker.coppersurfer.tk%3A6969&amp;tr=udp%3A%2F%2Fexodus.desync.com%3A6969","seeders":1,"leechers":0,"uploader":"tonioferah","files":3,"time":1343985674,"description":"Three young people - a woman and two men - roam in the overwhelming nature, through the forests and over sloping green hills. The trio investigates their mutual relationships and sexual predilections, encouraged by the ubiquitous elements. The protagonists don't talk a lot, the emotions expressed say enough. Occasionally playful, then serious, they experience the fiery elements and each other.\nThe video function of a digital photo camera, extra sound recordings on a laptop: these are the only instruments that the Greek director Frantzis uses to tell his existential fairytale. The result is unpolished, very colourful and is reminiscent of Super8 films. Close to the skin, the result is very sharp, from a distance it is out of focus or coarsely grained. Raw and even shocking. In the background, we hear amplified natural sounds of rushing wind and flowing water. With little additional music, apart from an occasional number by Joy Division. This artistic film makes our Dionysian roots tangible.\n\n_____________________________\n\nAudio: Greek, English\nSubtitles: English, Greek\n\n_____________________________\n\n\nGeneral\nFormat                           : AVI\nFormat/Info                      : Audio Video Interleave\nFile size                        : 1.46 GiB\nDuration                         : 1h 32mn\nOverall bit rate                 : 2 251 Kbps\n\nVideo\nID                               : 0\nFormat                           : MPEG-4 Visual\nFormat profile                   : Advanced Simple@L5\nFormat settings, BVOP            : Yes\nFormat settings, QPel            : No\nFormat settings, GMC             : No warppoints\nFormat settings, Matrix          : Custom\nCodec ID                         : XVID\nCodec ID/Hint                    : XviD\nDuration                         : 1h 32mn\nBit rate                         : 2 052 Kbps\nWidth                            : 720 pixels\nHeight                           : 544 pixels\nDisplay aspect ratio             : 4:3\nFrame rate                       : 25.000 fps\nColor space                      : YUV\nChroma subsampling               : 4:2:0\nBit depth                        : 8 bits\nScan type                        : Progressive\nCompression mode                 : Lossy\nBits/(Pixel*Frame)               : 0.210\nStream size                      : 1.33 GiB (91%)\nWriting library                  : XviD 1.2.1 (UTC 2008-12-04)\n\nAudio\nID                               : 1\nFormat                           : AC-3\nFormat/Info                      : Audio Coding 3\nMode extension                   : CM (complete main)\nCodec ID                         : 2000\nDuration                         : 1h 32mn\nBit rate mode                    : Constant\nBit rate                         : 192 Kbps\nChannel(s)                       : 2 channels\nChannel positions                : Front: L R\nSampling rate                    : 48.0 KHz\nBit depth                        : 16 bits\nCompression mode                 : Lossy\nStream size                      : 127 MiB (9%)\nAlignment                        : Aligned on interleaves\nInterleave, duration             : 96 ms (2.40 video frames)\nInterleave, preload duration     : 96 ms\n\n","torrent":{"xt":"urn:btih:fd21d181ed3d47eb69c8c92d1cd53d63cea77b01","amp;dn":"In+The+Woods+%28Angelos+Frantzis%2C+2010%29","amp;tr":["udp%3A%2F%2Ftracker.openbittorrent.com%3A80","udp%3A%2F%2Fopen.demonii.com%3A1337","udp%3A%2F%2Ftracker.coppersurfer.tk%3A6969","udp%3A%2F%2Fexodus.desync.com%3A6969"],"infoHash":"fd21d181ed3d47eb69c8c92d1cd53d63cea77b01","infoHashBuffer":{"type":"Buffer","data":[253,33,209,129,237,61,71,235,105,200,201,45,28,213,61,99,206,167,123,1]},"announce":[],"urlList":[]}}